<svg width="31" height="29" viewBox="0 0 31 29" fill="none" xmlns="http://www.w3.org/2000/svg">
<path d="M11.2857 27.9999C11.9958 27.9999 12.5714 27.4243 12.5714 26.7142C12.5714 26.0041 11.9958 25.4285 11.2857 25.4285C10.5756 25.4285 10 26.0041 10 26.7142C10 27.4243 10.5756 27.9999 11.2857 27.9999Z" stroke="black" stroke-width="2" stroke-linecap="round" stroke-linejoin="round"/>
<path d="M25.4302 27.9999C26.1403 27.9999 26.716 27.4243 26.716 26.7142C26.716 26.0041 26.1403 25.4285 25.4302 25.4285C24.7202 25.4285 24.1445 26.0041 24.1445 26.7142C24.1445 27.4243 24.7202 27.9999 25.4302 27.9999Z" stroke="black" stroke-width="2" stroke-linecap="round" stroke-linejoin="round"/>
<path d="M1 1H6.14286L9.58857 18.2157C9.70615 18.8077 10.0282 19.3394 10.4983 19.7178C10.9684 20.0963 11.5566 20.2973 12.16 20.2857H24.6571C25.2605 20.2973 25.8488 20.0963 26.3189 19.7178C26.789 19.3394 27.111 18.8077 27.2286 18.2157L29.2857 7.42857H7.42857" stroke="black" stroke-width="2" stroke-linecap="round" stroke-linejoin="round"/>
</svg>
