<svg width="17" height="16" viewBox="0 0 17 16" fill="none" xmlns="http://www.w3.org/2000/svg">
<path d="M6.41968 15.2273C6.79384 15.2273 7.09717 14.924 7.09717 14.5498C7.09717 14.1756 6.79384 13.8723 6.41968 13.8723C6.04551 13.8723 5.74219 14.1756 5.74219 14.5498C5.74219 14.924 6.04551 15.2273 6.41968 15.2273Z" stroke="#A5A5A5" stroke-linecap="round" stroke-linejoin="round"/>
<path d="M13.8728 15.2273C14.247 15.2273 14.5503 14.924 14.5503 14.5498C14.5503 14.1756 14.247 13.8723 13.8728 13.8723C13.4986 13.8723 13.1953 14.1756 13.1953 14.5498C13.1953 14.924 13.4986 15.2273 13.8728 15.2273Z" stroke="#A5A5A5" stroke-linecap="round" stroke-linejoin="round"/>
<path d="M1 1H3.70996L5.52563 10.0716C5.58758 10.3835 5.75727 10.6637 6.00499 10.8631C6.2527 11.0625 6.56266 11.1684 6.88061 11.1623H13.4658C13.7838 11.1684 14.0937 11.0625 14.3414 10.8631C14.5892 10.6637 14.7588 10.3835 14.8208 10.0716L15.9048 4.38745H4.38745" stroke="#A5A5A5" stroke-linecap="round" stroke-linejoin="round"/>
</svg>
