<svg width="76" height="76" viewBox="0 0 76 76" fill="none" xmlns="http://www.w3.org/2000/svg">
<path d="M70.6797 41.9805L68.7116 34.3C69.2497 34.1885 69.6534 33.7228 69.6534 33.1648V31.9265C69.6534 29.2378 67.4113 27.0504 64.6555 27.0504H55.6911V24.4962C55.6911 23.1732 54.5879 22.0969 53.2318 22.0969H36.5631L46.6925 18.1439C47.3027 17.9058 47.5995 17.2301 47.3554 16.6347C47.1114 16.0395 46.4192 15.7497 45.8086 15.988L37.5148 19.2245C40.0421 17.6425 42.5425 15.9014 43.4944 14.6837C45.3477 12.3132 44.8783 8.9137 42.4485 7.10563C40.0187 5.29742 36.5343 5.75548 34.6811 8.12603C33.327 9.85835 31.5404 14.7259 30.3841 18.1559C29.2278 14.7262 27.4412 9.85835 26.0871 8.12603C24.2341 5.75548 20.7495 5.29771 18.3197 7.10563C15.8899 8.91355 15.4207 12.313 17.2738 14.6837C18.2257 15.9015 20.726 17.6425 23.2535 19.2245L14.9597 15.988C14.3492 15.7494 13.6568 16.0394 13.4128 16.6347C13.1686 17.2301 13.4655 17.9058 14.0757 18.1439L24.2051 22.0969H7.53647C6.18034 22.0969 5.07716 23.1732 5.07716 24.4962V45.5486C5.07716 46.1897 5.6099 46.7096 6.26718 46.7096C6.92431 46.7096 7.4572 46.1898 7.4572 45.5486V24.4962C7.4572 24.4535 7.49268 24.4189 7.53647 24.4189H53.2316C53.2754 24.4189 53.3109 24.4535 53.3109 24.4962V45.5489C53.3109 46.19 53.8436 46.7099 54.5009 46.7099C55.158 46.7099 55.6909 46.1901 55.6909 45.5489V44.2327H69.7281C69.7294 44.2327 69.7304 44.233 69.7318 44.233C69.7331 44.233 69.7343 44.2329 69.7356 44.2329C71.4629 44.2342 72.9294 45.3403 73.4329 46.8644H69.7327C69.0755 46.8644 68.5426 47.3842 68.5426 48.0254V50.5021C68.5426 52.508 70.2152 54.1398 72.2712 54.1398H73.62V59.248H70.5084C69.4863 56.3687 66.6806 54.2945 63.3861 54.2945C60.0915 54.2945 57.2857 56.3686 56.2638 59.248H55.6908V50.502C55.6908 49.8609 55.158 49.341 54.5008 49.341C53.8436 49.341 53.3107 49.8607 53.3107 50.502V59.2479H28.6213C27.5991 56.3686 24.7935 54.2943 21.4989 54.2943C18.2044 54.2943 15.3986 56.3684 14.3766 59.2479H7.53647C7.49268 59.2479 7.4572 59.2133 7.4572 59.1705V56.6164H12.6138C13.2709 56.6164 13.8038 56.0966 13.8038 55.4554C13.8038 54.8141 13.2711 54.2943 12.6138 54.2943H1.19002C0.532891 54.2943 0 54.8141 0 55.4554C0 56.0966 0.532742 56.6164 1.19002 56.6164H5.0773V59.1705C5.0773 60.4936 6.18049 61.5699 7.53662 61.5699H13.9646C13.9643 61.5957 13.9625 61.6213 13.9625 61.6472C13.9625 65.7015 17.3434 69 21.4989 69C25.6545 69 29.0354 65.7015 29.0354 61.6472C29.0354 61.6212 29.0336 61.5957 29.0333 61.5699H55.8515C55.8512 61.5957 55.8495 61.6213 55.8495 61.6472C55.8495 65.7015 59.2304 69 63.3859 69C67.5414 69 70.9224 65.7015 70.9224 61.6472C70.9224 61.6212 70.9206 61.5957 70.9203 61.5699H74.8098C75.467 61.5699 75.9998 61.0502 75.9998 60.4089V48.0253C76 44.9676 73.6878 42.4271 70.6797 41.9805ZM25.6648 17.9581C20.9708 15.1122 19.5785 13.8029 19.1662 13.2755C18.1089 11.923 18.3767 9.98348 19.7631 8.95193C20.3346 8.52674 21.0082 8.32124 21.6769 8.32124C22.6302 8.32124 23.5734 8.73919 24.1949 9.53425C25.346 11.0068 27.1488 15.9629 28.3389 19.5343C27.5357 19.0729 26.6125 18.5329 25.6648 17.9581ZM32.4296 19.5342C33.6198 15.9629 35.4225 11.0069 36.5735 9.5341C37.6308 8.18164 39.6189 7.92053 41.0051 8.95193C42.3915 9.98348 42.6592 11.923 41.602 13.2755C41.1898 13.8028 39.7974 15.1122 35.1037 17.9579C34.1562 18.5326 33.2329 19.0728 32.4296 19.5342ZM55.6911 29.3721H64.6555C66.0991 29.3721 67.2735 30.518 67.2735 31.9263V32.0037H55.6911V29.3721ZM55.6911 41.9107V34.3257H66.265L68.2087 41.9107H55.6911ZM21.4989 66.6781C18.6556 66.6781 16.3424 64.4213 16.3424 61.6472C16.3424 58.8732 18.6556 56.6164 21.4989 56.6164C24.3423 56.6164 26.6555 58.8732 26.6555 61.6472C26.6555 64.4213 24.3423 66.6781 21.4989 66.6781ZM63.3862 66.6781C60.5429 66.6781 58.2297 64.4213 58.2297 61.6472C58.2297 58.8732 60.5429 56.6164 63.3862 56.6164C66.2295 56.6164 68.5428 58.8732 68.5428 61.6472C68.5428 64.4213 66.2295 66.6781 63.3862 66.6781ZM73.6201 51.8176H72.2714C71.5277 51.8176 70.9227 51.2274 70.9227 50.5018V49.186H73.62V51.8176H73.6201Z" fill="#007CFF"/>
<path d="M21.4984 59C20.1423 59 19.0391 60.1032 19.0391 61.4593C19.0391 62.8154 20.1423 63.9186 21.4984 63.9186C22.8545 63.9186 23.9577 62.8154 23.9577 61.4593C23.9577 60.1032 22.8545 59 21.4984 59Z" fill="#007CFF"/>
<path d="M63.3851 59C62.029 59 60.9258 60.1032 60.9258 61.4593C60.9258 62.8154 62.029 63.9186 63.3851 63.9186C64.7412 63.9186 65.8444 62.8154 65.8444 61.4593C65.8444 60.1032 64.7412 59 63.3851 59Z" fill="#007CFF"/>
<path d="M49.4252 55.2139H31.6549C30.9977 55.2139 30.4648 55.7466 30.4648 56.4039C30.4648 57.0612 30.9976 57.5939 31.6549 57.5939H49.4252C50.0823 57.5939 50.6152 57.0612 50.6152 56.4039C50.6152 55.7466 50.0825 55.2139 49.4252 55.2139Z" fill="#007CFF"/>
<path d="M18.9609 50.1367H3.72909C3.07195 50.1367 2.53906 50.6695 2.53906 51.3267C2.53906 51.984 3.0718 52.5168 3.72909 52.5168H18.9609C19.618 52.5168 20.1509 51.984 20.1509 51.3267C20.1509 50.6695 19.618 50.1367 18.9609 50.1367Z" fill="#007CFF"/>
<path d="M18.9587 32.3662H13.8814C13.2243 32.3662 12.6914 32.899 12.6914 33.5562V43.7107C12.6914 44.3678 13.2241 44.9007 13.8814 44.9007C14.5387 44.9007 15.0715 44.368 15.0715 43.7107V39.8234H17.6894C18.3466 39.8234 18.8795 39.2907 18.8795 38.6334C18.8795 37.9761 18.3467 37.4434 17.6894 37.4434H15.0715V34.7463H18.9587C19.6159 34.7463 20.1488 34.2135 20.1488 33.5562C20.1486 32.8991 19.6159 32.3662 18.9587 32.3662Z" fill="#007CFF"/>
<path d="M28.3251 40.3814C29.516 39.6014 30.3048 38.2562 30.3048 36.7295C30.3048 34.3235 28.3475 32.3662 25.9414 32.3662H22.7681C22.111 32.3662 21.5781 32.899 21.5781 33.5562V43.7107C21.5781 44.3678 22.1109 44.9007 22.7681 44.9007C23.4254 44.9007 23.9582 44.368 23.9582 43.7107V41.0927H25.9392L28.1245 44.3707C28.3538 44.7146 28.731 44.9007 29.1156 44.9007C29.3426 44.9007 29.5718 44.836 29.7745 44.7006C30.3215 44.3362 30.4692 43.5973 30.1045 43.0506L28.3251 40.3814ZM25.9414 38.7128H23.9582V34.7463H25.9414C27.0351 34.7463 27.9247 35.6358 27.9247 36.7295C27.9247 37.8232 27.0351 38.7128 25.9414 38.7128Z" fill="#007CFF"/>
<path d="M38.0017 42.5208H34.1144V39.8196C34.1407 39.8213 34.167 39.8236 34.1937 39.8236H36.7323C37.3894 39.8236 37.9223 39.2908 37.9223 38.6335C37.9223 37.9763 37.3895 37.4435 36.7323 37.4435H34.1937C34.1668 37.4435 34.1407 37.4457 34.1144 37.4475V34.7463H38.0017C38.6588 34.7463 39.1917 34.2135 39.1917 33.5562C39.1917 32.8991 38.659 32.3662 38.0017 32.3662H32.9244C32.2673 32.3662 31.7344 32.899 31.7344 33.5562V43.7107C31.7344 44.3678 32.2671 44.9007 32.9244 44.9007H38.0017C38.6588 44.9007 39.1917 44.368 39.1917 43.7107C39.1917 43.0534 38.6588 42.5208 38.0017 42.5208Z" fill="#007CFF"/>
<path d="M46.8845 42.5208H42.9972V39.8236H44.3459C45.0031 39.8236 45.536 39.2908 45.536 38.6335C45.536 37.9763 45.0032 37.4435 44.3459 37.4435H42.9972V34.7463H46.8845C47.5416 34.7463 48.0745 34.2135 48.0745 33.5562C48.0745 32.8991 47.5418 32.3662 46.8845 32.3662H41.8072C41.1501 32.3662 40.6172 32.899 40.6172 33.5562V43.7107C40.6172 44.3678 41.1499 44.9007 41.8072 44.9007H46.8845C47.5416 44.9007 48.0745 44.368 48.0745 43.7107C48.0745 43.0534 47.5416 42.5208 46.8845 42.5208Z" fill="#007CFF"/>
</svg>
