<svg width="15" height="15" viewBox="0 0 15 15" fill="none" xmlns="http://www.w3.org/2000/svg">
<path d="M10.9396 0H4.06036C1.82144 0 0 1.82144 0 4.06036V10.9398C0 13.1786 1.82144 15 4.06036 15H10.9398C13.1786 15 15 13.1786 15 10.9398V4.06036C15 1.82144 13.1786 0 10.9396 0V0ZM14.1206 10.9398C14.1206 12.6937 12.6937 14.1206 10.9396 14.1206H4.06036C2.30633 14.1206 0.879364 12.6937 0.879364 10.9398V4.06036C0.879364 2.30633 2.30633 0.879364 4.06036 0.879364H10.9398C12.6937 0.879364 14.1206 2.30633 14.1206 4.06036V10.9398Z" fill="white"/>
<path d="M7.49989 3.39844C5.2383 3.39844 3.39844 5.2383 3.39844 7.49989C3.39844 9.76147 5.2383 11.6013 7.49989 11.6013C9.76147 11.6013 11.6013 9.76147 11.6013 7.49989C11.6013 5.2383 9.76147 3.39844 7.49989 3.39844ZM7.49989 10.722C5.7233 10.722 4.2778 9.27658 4.2778 7.49989C4.2778 5.7233 5.7233 4.2778 7.49989 4.2778C9.27658 4.2778 10.722 5.7233 10.722 7.49989C10.722 9.27658 9.27658 10.722 7.49989 10.722Z" fill="white"/>
<path d="M11.7002 1.94189C11.0319 1.94189 10.4883 2.4856 10.4883 3.15382C10.4883 3.82216 11.0319 4.36587 11.7002 4.36587C12.3685 4.36587 12.9123 3.82216 12.9123 3.15382C12.9123 2.48549 12.3685 1.94189 11.7002 1.94189ZM11.7002 3.48639C11.5169 3.48639 11.3676 3.33716 11.3676 3.15382C11.3676 2.97038 11.5169 2.82126 11.7002 2.82126C11.8837 2.82126 12.0329 2.97038 12.0329 3.15382C12.0329 3.33716 11.8837 3.48639 11.7002 3.48639Z" fill="white"/>
</svg>
