<svg width="98" height="70" viewBox="0 0 98 70" fill="none" xmlns="http://www.w3.org/2000/svg">
<path d="M47.6144 67.884H49.3127L48.9401 69.9676H48.6503L48.9751 68.1229H47.8596L47.5348 69.9676H47.2461L47.6144 67.884Z" fill="#007CFF"/>
<path d="M51.9763 68.9264C51.884 69.5707 51.4456 69.9985 50.7419 69.9985C50.0381 69.9985 49.741 69.5272 49.8269 68.9264C49.9203 68.2896 50.3576 67.8555 51.0614 67.8555C51.7651 67.8555 52.0623 68.3267 51.9763 68.9264ZM51.6664 68.9264C51.7438 68.4615 51.5602 68.0964 51.0486 68.0964C50.5179 68.0964 50.2186 68.4467 50.1369 68.9264C50.0551 69.4062 50.2483 69.7575 50.7546 69.7575C51.2896 69.7554 51.5857 69.4073 51.6664 68.9264Z" fill="#007CFF"/>
<path d="M52.4922 69.9675L52.8584 67.8818H53.7447C54.1905 67.8818 54.425 68.1291 54.3624 68.542C54.2998 68.9549 54.0164 69.2022 53.5133 69.2022H52.9178L52.7841 69.9675H52.4922ZM53.1057 68.1228L52.9592 68.9613H53.5557C53.6168 68.9671 53.6783 68.9607 53.7369 68.9424C53.7954 68.9241 53.8497 68.8943 53.8965 68.8548C53.9434 68.8152 53.9819 68.7667 54.0098 68.7121C54.0376 68.6575 54.0543 68.5979 54.0588 68.5367C54.1002 68.3043 54.0281 68.1175 53.7022 68.1175L53.1057 68.1228Z" fill="#007CFF"/>
<path d="M56.8488 67.884L56.8064 68.125H56.0729L55.7492 69.9697H55.4594L55.7842 68.125H55.0508L55.0932 67.884H56.8488Z" fill="#007CFF"/>
<path d="M56.9981 69.9675H56.668L57.9332 67.8818H58.189L58.7197 69.9675H58.4182L58.2739 69.3721H57.3526L56.9981 69.9675ZM57.4938 69.1311H58.2155L58.0032 68.2682L57.4938 69.1311Z" fill="#007CFF"/>
<path d="M61.5903 67.884L61.2242 69.9676H60.9376L61.2624 68.1229H60.2572L60.0948 69.0516C59.9314 69.9793 59.5471 69.9963 59.2266 69.9676L59.268 69.7256C59.5142 69.7373 59.6925 69.7044 59.8051 69.0516L60.0099 67.884H61.5903Z" fill="#007CFF"/>
<path d="M63.4082 69.9675H63.0781L64.3434 67.8818H64.6002L65.1309 69.9675H64.8305L64.6862 69.3721H63.7638L63.4082 69.9675ZM63.9039 69.1311H64.6257L64.4134 68.2682L63.9039 69.1311Z" fill="#007CFF"/>
<path d="M65.7617 69.9675L66.129 67.8818H67.0365C67.5375 67.8818 67.6903 68.1918 67.6436 68.4529C67.6227 68.5538 67.576 68.6476 67.5081 68.7252C67.4403 68.8027 67.3535 68.8614 67.2562 68.8955C67.3587 68.9215 67.4475 68.9856 67.5045 69.0747C67.5615 69.1638 67.5824 69.2713 67.5629 69.3753C67.5279 69.6937 67.288 69.9675 66.699 69.9675H65.7617ZM66.7403 69.7255C67.0842 69.7255 67.2254 69.5546 67.2562 69.3753C67.287 69.1959 67.2095 69.025 66.8645 69.025H66.2171L66.094 69.7255H66.7403ZM66.8773 68.784C67.1702 68.784 67.3093 68.6121 67.3369 68.4529C67.3645 68.2937 67.3008 68.1228 66.994 68.1228H66.3763L66.2595 68.784H66.8773Z" fill="#007CFF"/>
<path d="M70.0974 67.884L70.055 68.1249H69.3215L69.0031 69.9675H68.7133L69.0381 68.1228H68.3047L68.3472 67.8818L70.0974 67.884Z" fill="#007CFF"/>
<path d="M72.5319 68.9264C72.4385 69.5707 71.9959 69.9985 71.2964 69.9985C70.597 69.9985 70.2955 69.5272 70.3815 68.9264C70.4749 68.2896 70.9175 67.8555 71.617 67.8555C72.3165 67.8555 72.6136 68.3267 72.5319 68.9264ZM72.222 68.9264C72.2984 68.4615 72.1095 68.0964 71.6032 68.0964C71.0725 68.0964 70.7731 68.4467 70.6914 68.9264C70.6097 69.4062 70.8039 69.7575 71.3102 69.7575C71.8452 69.7554 72.1403 69.4073 72.222 68.9264Z" fill="#007CFF"/>
<path d="M73.1864 69.5429C73.2448 69.616 73.3202 69.6736 73.4061 69.7106C73.492 69.7476 73.5857 69.763 73.6789 69.7552C74.0048 69.7552 74.1873 69.5865 74.2245 69.3593C74.2754 69.0611 74.0122 68.991 73.5717 68.991L73.6142 68.7501C73.922 68.7501 74.2882 68.7034 74.3412 68.4189C74.3688 68.2671 74.2988 68.0941 73.9729 68.0941C73.7737 68.0962 73.5832 68.1762 73.4422 68.317L73.2713 68.1376C73.3688 68.0415 73.4852 67.9665 73.613 67.9176C73.7409 67.8686 73.8775 67.8467 74.0143 67.8532C74.4336 67.8532 74.6798 68.0654 74.6289 68.4189C74.6126 68.5259 74.5661 68.626 74.4948 68.7074C74.4235 68.7888 74.3305 68.8482 74.2266 68.8785C74.3278 68.9053 74.4144 68.9706 74.468 69.0605C74.5215 69.1503 74.5378 69.2576 74.5132 69.3593C74.4357 69.8094 74.0748 69.9962 73.6481 69.9962C73.2448 69.9962 73.0569 69.8104 72.9922 69.7L73.1864 69.5429Z" fill="#007CFF"/>
<path d="M75.3223 69.9675H74.9922L76.2574 67.8818H76.5132L77.0439 69.9675H76.7425L76.5992 69.3721H75.6768L75.3223 69.9675ZM75.818 69.1311H76.5397L76.3275 68.2682L75.818 69.1311Z" fill="#007CFF"/>
<path d="M78.0431 67.884H79.7413L79.3741 69.9697H79.0875L79.4112 68.125H78.2957L77.9773 69.9697H77.6875L78.0431 67.884Z" fill="#007CFF"/>
<path d="M81.7791 69.9675H81.4893L81.6528 69.042C81.5856 69.1338 81.4968 69.2076 81.3942 69.2567C81.2916 69.3058 81.1784 69.3287 81.0647 69.3233C80.6157 69.3233 80.2772 69.0908 80.3769 68.5261L80.4905 67.8818H80.7845L80.6709 68.5261C80.6126 68.8647 80.7357 69.0812 81.1114 69.0812C81.4872 69.0812 81.6889 68.869 81.7483 68.5261L81.8618 67.8818H82.1506L81.7791 69.9675Z" fill="#007CFF"/>
<path d="M82.7441 69.9675H82.4141L83.6793 67.8818H83.9351L84.4658 69.9675H84.1654L84.021 69.3721H83.0987L82.7441 69.9675ZM83.2398 69.1311H83.9616L83.7493 68.2682L83.2398 69.1311Z" fill="#007CFF"/>
<path d="M85.069 68.9264C85.1624 68.2896 85.5997 67.8555 86.3034 67.8555C86.555 67.8555 86.8341 67.9011 87.0029 68.0741L86.8373 68.2599C86.6781 68.1466 86.4859 68.0891 86.2907 68.0964C85.76 68.0964 85.4596 68.4467 85.3789 68.9264C85.2983 69.4062 85.4851 69.7575 85.9967 69.7575C86.205 69.7573 86.41 69.7051 86.5932 69.6057L86.7152 69.8233C86.4931 69.9501 86.2394 70.0109 85.9839 69.9985C85.2845 69.9985 84.983 69.5272 85.069 68.9264Z" fill="#007CFF"/>
<path d="M89.3474 67.884L89.305 68.125H88.5715L88.2531 69.9697H87.9633L88.2881 68.125H87.5547L87.5971 67.884H89.3474Z" fill="#007CFF"/>
<path d="M91.2335 68.7841L91.1911 69.0261H90.1116L89.9885 69.7277H91.1348L91.0924 69.9697H89.6562L90.0235 67.884H91.4437L91.4023 68.125H90.2708L90.154 68.7841H91.2335Z" fill="#007CFF"/>
<path d="M93.5565 69.9676H93.2667L93.5586 68.3064L92.1787 69.9676H91.8242L92.1904 67.8819H92.4802L92.1872 69.543L93.5671 67.8819H93.9216L93.5565 69.9676ZM92.6574 67.3469H92.8453C92.8612 67.47 92.9653 67.5274 93.1054 67.5274C93.1727 67.5352 93.2408 67.522 93.3005 67.4897C93.3601 67.4574 93.4083 67.4076 93.4386 67.3469H93.6509C93.5968 67.5125 93.4312 67.7046 93.0788 67.7046C92.7562 67.7067 92.6574 67.4828 92.6574 67.349V67.3469Z" fill="#007CFF"/>
<path d="M78.5859 27.7349C78.4578 29.37 77.9426 30.9511 77.083 32.3478C76.2593 33.7139 75.1151 35.0513 73.6111 35.6732C72.3628 36.1923 71.0042 36.257 69.6743 36.3621C69.4684 36.3791 69.2624 36.3971 69.0544 36.4205C66.7782 36.5777 64.636 37.5543 63.0245 39.1696L54.0311 48.1629C54.0077 48.0717 53.9833 47.9868 53.9589 47.9061V47.8997C53.7471 47.2312 53.3897 46.618 52.9125 46.1041C52.4354 45.5902 51.8502 45.1884 51.1992 44.9277L59.991 36.135C61.6068 34.5243 62.5835 32.3822 62.74 30.1061C62.7634 29.8938 62.7814 29.6911 62.7984 29.4852C62.9045 28.1552 62.9682 26.7966 63.4873 25.5484C64.1093 24.0443 65.4466 22.8948 66.8127 22.0775C68.2091 21.2171 69.7904 20.7015 71.4256 20.5735C72.0189 20.53 72.2843 21.3165 71.8979 21.706L67.8179 25.8265C68.0606 27.4214 68.3065 29.0136 68.5555 30.6029C70.1498 30.8512 71.7437 31.0989 73.3372 31.3458L77.4576 27.2647C77.8408 26.8741 78.6295 27.1426 78.5859 27.7349Z" fill="#007CFF"/>
<path d="M44.2887 40.75C43.5355 40.0032 42.9624 39.0945 42.613 38.0931C42.2635 37.0917 42.1469 36.0238 42.272 34.9705C42.3022 34.7536 42.3146 34.5346 42.3091 34.3156C42.3091 34.1999 42.2996 34.0832 42.29 33.9675C42.2648 33.6557 42.2198 33.3459 42.1552 33.0398C42.1499 33.0005 42.1393 32.9645 42.1319 32.9252C41.8338 31.5759 41.169 30.3352 40.2107 29.3397C40.1725 29.2962 40.1322 29.2559 40.0918 29.2155C39.3894 28.4996 38.552 27.93 37.6282 27.5396C36.7043 27.1492 35.7122 26.9458 34.7093 26.941C33.7064 26.9362 32.7124 27.1303 31.7849 27.5119C30.8574 27.8935 30.0146 28.4551 29.3054 29.1643C28.5962 29.8735 28.0346 30.7163 27.653 31.6438C27.2714 32.5713 27.0774 33.5652 27.0821 34.5682C27.0869 35.5711 27.2903 36.5632 27.6807 37.4871C28.0711 38.4109 28.6407 39.2483 29.3566 39.9507C29.397 39.991 29.4383 40.0314 29.4808 40.0696C30.4764 41.0272 31.7166 41.6919 33.0652 41.9908C33.1045 41.9982 33.1406 42.0088 33.1788 42.0152C33.4856 42.0792 33.7962 42.1238 34.1086 42.1489C34.2243 42.1585 34.3411 42.1659 34.4567 42.1701C34.6757 42.1736 34.8946 42.1609 35.1116 42.1319C36.1649 42.0068 37.2328 42.1234 38.2342 42.4728C39.2357 42.8223 40.1443 43.3954 40.8911 44.1486L44.8671 48.1258C45.0764 47.3268 45.4908 46.5965 46.0692 46.007C46.6477 45.4176 47.3701 44.9895 48.165 44.7653L48.2711 44.7377L44.2887 40.75ZM38.212 37.9903L38.1377 38.0646L33.4452 39.3266L29.9723 35.8526L30.0848 35.428L30.0922 35.3951L31.2438 31.1059L35.5405 29.9521L35.5723 29.9426L35.9969 29.8311L39.4719 33.3041L38.212 37.9903Z" fill="#007CFF"/>
<path d="M52.6411 49.3167C52.6403 50.0247 52.4049 50.7125 51.9719 51.2726C51.5389 51.8328 50.9326 52.2337 50.2476 52.4129C50.0591 52.4598 49.867 52.491 49.6734 52.5063C49.5673 52.5117 49.461 52.5117 49.355 52.5063C49.1376 52.5011 48.9214 52.4737 48.7096 52.4246C48.6343 52.4076 48.5578 52.3853 48.4814 52.362C47.953 52.1946 47.477 51.8932 47.0997 51.4872C46.7225 51.0811 46.4569 50.5842 46.3289 50.0449C46.3289 50.0322 46.3289 50.0215 46.3215 50.0088C46.2745 49.8018 46.2493 49.5905 46.2461 49.3783C46.2461 49.356 46.2461 49.3348 46.2461 49.3114C46.2461 49.235 46.2461 49.1586 46.2535 49.0822C46.2677 48.8895 46.2986 48.6984 46.3459 48.5111C46.4859 47.9696 46.7653 47.4743 47.1564 47.0744C47.5475 46.6746 48.0366 46.3842 48.5748 46.2323C48.856 46.1533 49.1468 46.114 49.4388 46.1155H49.5046C49.7181 46.1306 49.9307 46.1565 50.1415 46.193L50.1786 46.2015C50.7165 46.3292 51.2121 46.5942 51.617 46.9705C52.022 47.3468 52.3225 47.8217 52.4893 48.3487C52.5116 48.4241 52.5307 48.4973 52.5498 48.5727C52.5998 48.7858 52.6279 49.0035 52.6337 49.2223V49.2318C52.6411 49.2701 52.6411 49.2902 52.6411 49.3167Z" fill="#007CFF"/>
<path d="M18.9484 48.8848H12.4727V49.7477H18.9484V48.8848Z" fill="#007CFF"/>
<path d="M86.4132 48.8848H79.9375V49.7477H86.4132V48.8848Z" fill="#007CFF"/>
<path d="M49.8747 12.3252H49.0117V18.8009H49.8747V12.3252Z" fill="#007CFF"/>
<path d="M96.7327 56.1384C96.8686 54.4401 96.945 52.7419 96.9078 51.0436C96.9015 50.619 96.8902 50.1945 96.8739 49.7699C96.8675 49.5576 96.8548 49.3453 96.8389 49.133L96.7943 48.4962L96.7083 47.2331C96.6987 47.0208 96.668 46.8085 96.6446 46.6026L96.5703 45.9743C96.1905 42.6358 95.4689 39.3451 94.4167 36.154L94.2257 35.5575C94.1556 35.3601 94.0802 35.1659 94.0134 34.9695L93.576 33.7956C93.4391 33.4018 93.2672 33.0207 93.1037 32.6376L92.6101 31.4891C92.5316 31.2959 92.4382 31.1091 92.3459 30.9223L92.0731 30.3608L91.5286 29.2368L90.931 28.1414L90.6327 27.5948C90.533 27.4122 90.4374 27.2275 90.3249 27.0524L89.6753 25.9909C89.4631 25.6375 89.2508 25.2798 89.0098 24.9401L88.3146 23.9074C88.1978 23.7365 88.0874 23.5614 87.9643 23.3937L87.5928 22.8959L86.8498 21.8992C86.7872 21.8164 86.7267 21.7325 86.663 21.6508L86.4656 21.4109L86.0708 20.9312L85.2832 19.9759L84.4553 19.0525L84.0403 18.5907C83.9023 18.4379 83.7675 18.2808 83.6157 18.1375L82.7432 17.2555L82.308 16.815C82.1658 16.6653 82.0066 16.5337 81.8559 16.3904L80.9441 15.553C80.7913 15.415 80.6448 15.2696 80.4856 15.1379L80.0111 14.7399L79.0654 13.9439C78.9094 13.808 78.747 13.6827 78.5814 13.5586L78.0889 13.1839L77.1071 12.4345C74.4375 10.5058 71.5756 8.85858 68.5669 7.51909C62.549 4.84036 56.0353 3.45613 49.4481 3.45613C42.8609 3.45613 36.3472 4.84036 30.3293 7.51909C27.3213 8.8586 24.4601 10.5058 21.7913 12.4345L20.8084 13.1839L20.317 13.5586C20.1524 13.6827 19.9879 13.808 19.8329 13.9439L18.8872 14.7399L18.4128 15.1379C18.2546 15.2706 18.1081 15.415 17.9542 15.553L17.0425 16.3904C16.8928 16.5326 16.7336 16.6653 16.5914 16.815L16.1562 17.2555L15.2837 18.1365C15.1351 18.2797 15.0003 18.4368 14.8591 18.5897L14.4441 19.0514L13.6151 19.9748L12.8286 20.9301L12.4338 21.4088L12.2364 21.6487L12.0496 21.8971L11.3066 22.8937L10.934 23.3915C10.8119 23.5592 10.7016 23.7344 10.5838 23.9053L9.88958 24.937C9.6497 25.2766 9.4406 25.6354 9.22407 25.9888L8.57447 27.0502C8.46196 27.2254 8.3622 27.4101 8.26667 27.5916L7.96841 28.1393L7.36978 29.2346L6.82844 30.3767L6.55565 30.9382C6.46331 31.1261 6.3699 31.3118 6.29136 31.505L5.79781 32.6535C5.63435 33.0366 5.46241 33.4177 5.32442 33.8115L4.88817 34.9854C4.81599 35.1807 4.73956 35.376 4.67057 35.5734L4.47954 36.17C3.4269 39.3606 2.70488 42.6509 2.32485 45.9891L2.25056 46.6175C2.22721 46.8298 2.19642 47.0421 2.18686 47.2469L2.10088 48.5111L2.05631 49.1479C2.03933 49.3602 2.02658 49.5725 2.02021 49.7848C2.00394 50.2093 1.99299 50.6339 1.98733 51.0585C1.95336 52.7567 2.02447 54.455 2.16033 56.1533C1.83117 54.4756 1.59763 52.7807 1.46084 51.0765C1.42582 50.6519 1.40037 50.2221 1.37808 49.7943C1.36534 49.582 1.35895 49.3697 1.35683 49.1511L1.3441 48.5142L1.32288 47.2257C1.31439 47.0134 1.32923 46.8011 1.33454 46.5814L1.35789 45.9371C1.58436 38.9796 3.36624 32.1612 6.57265 25.9825L7.19569 24.8319C7.40797 24.4487 7.60753 24.0624 7.8421 23.6951L8.52459 22.5774C8.64028 22.3927 8.74855 22.2028 8.87061 22.0212L9.23786 21.4789L9.9745 20.3952L10.1603 20.1245L10.3566 19.8623L10.7504 19.338L11.5412 18.2904L12.3807 17.282L12.8053 16.7789C12.9465 16.6112 13.0834 16.4403 13.2352 16.2822L14.1246 15.3152L14.5704 14.8323C14.7158 14.6677 14.8793 14.5213 15.0322 14.3652L15.9683 13.4407C16.1254 13.289 16.2761 13.1287 16.4407 12.9833L16.9321 12.546L17.915 11.6703C18.0763 11.5217 18.2472 11.3837 18.4181 11.2457L18.9297 10.8318L19.955 10.0039C25.5675 5.70335 32.0518 2.68107 38.9544 1.14846C45.8686 -0.382819 53.034 -0.382819 59.9482 1.14846C66.8507 2.68124 73.335 5.7035 78.9476 10.0039L79.9719 10.8307L80.4834 11.2447C80.6554 11.3816 80.8263 11.5196 80.9876 11.6692L81.9705 12.5449L82.4609 12.9822C82.6243 13.1287 82.7793 13.2879 82.9332 13.4407L83.8641 14.3493C84.0169 14.5053 84.1825 14.6518 84.3258 14.8163L84.7716 15.2993L85.661 16.2662C85.8118 16.4244 85.9498 16.5953 86.0856 16.763L86.5102 17.2661L87.3508 18.2744L88.1405 19.3221L88.5343 19.8464L88.7318 20.1086L88.9164 20.3792L89.6594 21.4629L90.0267 22.0043C90.1477 22.1858 90.257 22.3758 90.3727 22.5604L91.0552 23.6781C91.1613 23.866 91.2887 24.0454 91.3895 24.2407L91.7016 24.8149L92.3246 25.9644C95.5295 32.1416 97.312 38.9574 97.5415 45.9127L97.5649 46.557C97.5712 46.7693 97.585 46.9816 97.5776 47.2013L97.5553 48.4898L97.5436 49.133C97.5436 49.3453 97.5351 49.5576 97.5224 49.7699C97.5001 50.1945 97.4757 50.6254 97.4396 51.0532C97.3012 52.7603 97.0652 54.4582 96.7327 56.1384Z" fill="#007CFF"/>
<path d="M8.60811 66.1464H0L7.00536 59.2599H1.84051L2.29799 57.5383H10.9061L3.90071 64.4248H9.06559L8.60811 66.1464Z" fill="#007CFF"/>
<path d="M12.9774 62.699L12.0497 66.1423H10.3281L12.1708 59.2558C12.475 58.1073 13.2014 57.5335 14.3499 57.5342H19.5147C20.6625 57.5342 21.0838 58.1081 20.7788 59.2558L18.9362 66.1465H17.2146L18.1423 62.7033L12.9774 62.699ZM18.6029 60.9774L19.0604 59.2558H13.8956L13.4381 60.9774H18.6029Z" fill="#007CFF"/>
<path d="M22.3779 66.1464H20.6562L22.9563 57.5383H29.8428C30.9899 57.5383 31.4112 58.1122 31.107 59.2599L30.6495 60.9816C30.3452 62.1286 29.6189 62.7025 28.4704 62.7032H23.3055L22.3779 66.1464ZM28.9279 60.9816L29.3854 59.2599H24.2205L23.763 60.9816H28.9279Z" fill="#007CFF"/>
<path d="M31.4438 64.4207L32.829 59.2558C33.1332 58.1073 33.8596 57.5335 35.0081 57.5342H41.8946L41.4371 59.2558H34.5506L33.1707 64.4207H40.0572L39.5998 66.1423H32.7133C31.5613 66.1451 31.1381 65.5712 31.4438 64.4207Z" fill="#007CFF"/>
<path d="M45.3331 57.5342L44.4182 60.9774H49.5831L50.498 57.5342H52.2196L49.9195 66.1423H48.199L49.1266 62.699H43.9618L43.0341 66.1423H41.3125L43.6126 57.5342H45.3331Z" fill="#007CFF"/>
<path d="M54.2938 62.699L53.3661 66.1423H51.6445L53.4872 59.2558C53.7914 58.1073 54.5175 57.5335 55.6652 57.5342H60.829C61.9774 57.5342 62.3992 58.1081 62.0942 59.2558L60.2516 66.1465H58.531L59.4587 62.7033L54.2938 62.699ZM59.9193 60.9774L60.3768 59.2558H55.212L54.7545 60.9774H59.9193Z" fill="#007CFF"/>
<path d="M72.4234 59.2558H65.5369L65.0805 60.9774H70.2453C71.3931 60.9774 71.8145 61.5513 71.5095 62.699L71.0382 64.4207C70.7339 65.5677 70.0076 66.1416 68.8591 66.1423H61.9727L62.4301 64.4207H69.3198L69.7911 62.699H64.6262C63.4777 62.699 63.0564 62.1252 63.3621 60.9774L63.8195 59.2558C64.1238 58.1073 64.8498 57.5335 65.9975 57.5342H72.884L72.4234 59.2558Z" fill="#007CFF"/>
<path d="M72.3047 66.1464L72.6825 64.7241H74.1048L73.727 66.1464H72.3047Z" fill="#007CFF"/>
<path d="M82.2594 66.1464H77.0946C75.9468 66.1464 75.5254 65.5726 75.8304 64.4248L77.673 57.5383H79.3946L77.552 64.4248H82.7169L84.5595 57.5383H86.2811L84.4385 64.4248C84.1342 65.5726 83.4079 66.1464 82.2594 66.1464Z" fill="#007CFF"/>
<path d="M94.3112 66.1464H85.7031L92.7085 59.2599H87.5436L88.0011 57.5383H96.6092L89.6038 64.4248H94.7687L94.3112 66.1464Z" fill="#007CFF"/>
</svg>
