<svg width="14" height="16" viewBox="0 0 14 16" fill="none" xmlns="http://www.w3.org/2000/svg">
<path d="M12.4545 6.72727C12.4545 11.1818 6.72727 15 6.72727 15C6.72727 15 1 11.1818 1 6.72727C1 5.20831 1.60341 3.75155 2.67748 2.67748C3.75155 1.60341 5.20831 1 6.72727 1C8.24624 1 9.70299 1.60341 10.7771 2.67748C11.8511 3.75155 12.4545 5.20831 12.4545 6.72727Z" stroke="white" stroke-width="1.2" stroke-linecap="round" stroke-linejoin="round"/>
<path d="M6.7255 8.6363C7.77986 8.6363 8.63459 7.78157 8.63459 6.72721C8.63459 5.67284 7.77986 4.81812 6.7255 4.81812C5.67114 4.81812 4.81641 5.67284 4.81641 6.72721C4.81641 7.78157 5.67114 8.6363 6.7255 8.6363Z" stroke="white" stroke-width="1.2" stroke-linecap="round" stroke-linejoin="round"/>
</svg>
