<svg width="71" height="63" viewBox="0 0 71 63" fill="none" xmlns="http://www.w3.org/2000/svg">
<path d="M55.747 49.1975C55.1254 48.7664 54.272 48.9214 53.8413 49.5431C53.4238 50.1457 52.9508 50.7316 52.4346 51.2847C52.0888 51.6557 51.613 52.103 51.0953 52.5435C50.5192 53.0338 50.4497 53.8981 50.9398 54.4743C51.2107 54.7926 51.596 54.9561 51.9836 54.9561C52.2973 54.9561 52.6128 54.8489 52.8706 54.6295C53.4746 54.1154 54.0168 53.6048 54.4378 53.1527C55.0435 52.5038 55.6003 51.8142 56.0928 51.1031C56.5236 50.4815 56.3688 49.6282 55.747 49.1975Z" fill="#007CFF"/>
<path d="M49.7789 55.3383C49.4576 54.6535 48.6425 54.3588 47.9574 54.68L47.9145 54.6993C47.2225 55.0046 46.9091 55.8132 47.2147 56.5052C47.4407 57.0174 47.9422 57.3221 48.4683 57.3221C48.653 57.3221 48.8408 57.2845 49.0205 57.2052C49.0539 57.1905 49.087 57.1755 49.1203 57.16C49.8051 56.8387 50.1 56.0234 49.7789 55.3383Z" fill="#007CFF"/>
<path d="M66.0304 0H4.09158C1.83536 0 0 1.83563 0 4.09159V42.474C0 44.7298 1.83536 46.5653 4.09158 46.5653H32.9328C34.1554 51.7382 36.9201 55.4018 39.3365 57.7489C42.8634 61.1753 46.9063 63 48.4689 63C50.0313 63 54.0742 61.1755 57.6013 57.7491C60.0176 55.4018 62.7825 51.7382 64.005 46.5655H66.0304C68.2865 46.5655 70.122 44.73 70.122 42.4741V4.09159C70.122 1.83563 68.2865 0 66.0304 0ZM61.9045 40.9526C61.9046 48.1685 58.5737 52.955 55.7792 55.6998C52.4645 58.9557 49.0642 60.2221 48.4689 60.2606C47.8734 60.2221 44.473 58.9558 41.1583 55.6998C38.3641 52.955 35.0331 48.1685 35.0331 40.9526V34.208C39.7486 32.8443 44.1608 30.978 48.4693 28.5254C52.6807 30.9157 57.2907 32.865 61.9045 34.2072V40.9526ZM67.3829 42.474C67.3829 43.2196 66.776 43.8262 66.0304 43.8262H64.4813C64.5862 42.9084 64.6438 41.9514 64.6438 40.9526V33.1696C64.6438 32.5514 64.2296 32.01 63.6331 31.8479C58.6598 30.4974 53.6553 28.3929 49.1606 25.7621C48.7333 25.512 48.2044 25.5123 47.7768 25.7624C43.1548 28.4678 38.4209 30.4582 33.3046 31.8479C32.7082 32.0101 32.294 32.5515 32.294 33.1696V40.9526C32.294 41.9514 32.3514 42.9084 32.4564 43.8262H4.09158C3.34585 43.8262 2.73914 43.2195 2.73914 42.474V19.1737H67.3829V42.474ZM67.3829 16.4347H2.73914V10.9567H67.3829V16.4347ZM67.3829 8.21741H2.73914V4.09159C2.73914 3.34586 3.34585 2.73914 4.09158 2.73914H66.0304C66.776 2.73914 67.3829 3.34586 67.3829 4.09159V8.21741Z" fill="#007CFF"/>
<path d="M16.4326 28.7612C15.6068 28.7612 14.7915 28.9282 14.0369 29.2465C13.2997 28.9341 12.4894 28.7612 11.6398 28.7612C8.24145 28.7612 5.47656 31.5258 5.47656 34.924C5.47656 38.3222 8.24131 41.0871 11.6398 41.0871C12.4894 41.0871 13.2997 40.9142 14.0368 40.6018C14.7915 40.9201 15.6068 41.0871 16.4326 41.0871C19.831 41.0871 22.5959 38.3222 22.5959 34.924C22.5959 31.5258 19.831 28.7612 16.4326 28.7612ZM11.6398 38.3479C9.75167 38.3479 8.2157 36.8121 8.2157 34.924C8.2157 33.0361 9.75167 31.5004 11.6398 31.5004C13.5276 31.5004 15.0635 33.0361 15.0635 34.924C15.0635 36.812 13.5276 38.3479 11.6398 38.3479ZM16.7721 38.3312C17.4226 37.3546 17.8027 36.1829 17.8027 34.9242C17.8027 33.6654 17.4226 32.494 16.7722 31.5174C18.5013 31.6883 19.8566 33.151 19.8566 34.9242C19.8566 36.6973 18.5013 38.1602 16.7721 38.3312Z" fill="#007CFF"/>
<path d="M13.8908 22.5979H6.84613C6.08972 22.5979 5.47656 23.2111 5.47656 23.9675C5.47656 24.7237 6.08972 25.337 6.84613 25.337H13.8908C14.6472 25.337 15.2603 24.7236 15.2603 23.9675C15.2603 23.2111 14.6472 22.5979 13.8908 22.5979Z" fill="#007CFF"/>
<path d="M17.9423 22.5979H17.8774C17.121 22.5979 16.5078 23.2111 16.5078 23.9675C16.5078 24.7237 17.121 25.337 17.8774 25.337H17.9423C18.6986 25.337 19.3119 24.7236 19.3119 23.9675C19.3119 23.2111 18.6986 22.5979 17.9423 22.5979Z" fill="#007CFF"/>
<path d="M55.9876 37.8034C55.4531 37.2688 54.586 37.2686 54.0509 37.8032L46.7269 45.1267L42.8889 41.2885C42.354 40.7541 41.4868 40.7538 40.9519 41.2885C40.4171 41.8235 40.417 42.6907 40.9519 43.2255L45.7584 48.0321C46.0259 48.2996 46.3764 48.4334 46.7269 48.4334C47.0773 48.4334 47.4279 48.2996 47.6952 48.0321L55.9875 39.7404C56.5224 39.2057 56.5224 38.3385 55.9876 37.8034Z" fill="#007CFF"/>
</svg>
