<svg width="63" height="63" viewBox="0 0 63 63" fill="none" xmlns="http://www.w3.org/2000/svg">
<path d="M61.8098 9.57476L62.6392 8.74531C63.1197 8.26482 63.1197 7.4857 62.6392 7.00509C62.1587 6.52472 61.3796 6.52472 60.899 7.00509L60.0696 7.83453L59.2406 7.00558C59.0099 6.77487 58.6969 6.64518 58.3705 6.64518H57.0172L50.7324 0.360399C50.5016 0.12969 50.1887 0 49.8623 0H4.43135C1.98792 0 0 1.9878 0 4.43135V27.4901C0 29.9336 1.98792 31.9215 4.43135 31.9215H15.151L7.94244 39.1302C7.10549 39.9672 6.64456 41.08 6.64456 42.2637C6.64456 43.4473 7.10549 44.5601 7.94244 45.3972L24.2474 61.7021C25.0844 62.5391 26.1972 63 27.3809 63C28.5646 63 29.6774 62.5391 30.5143 61.7021L42.7262 49.4904C43.2068 49.0099 43.2068 48.2308 42.7262 47.7501C42.2457 47.2699 41.4666 47.2698 40.9861 47.7501L28.7741 59.9619C28.402 60.3341 27.9071 60.539 27.3809 60.539C26.8546 60.539 26.3597 60.3341 25.9876 59.9619L9.68255 43.6569C9.31046 43.2848 9.10547 42.7899 9.10547 42.2637C9.10547 41.7373 9.31046 41.2425 9.68255 40.8704L41.4467 9.10633H57.861L58.3296 9.57488L55.4843 12.4202C55.0023 12.1891 54.463 12.0595 53.8938 12.0595C51.8584 12.0595 50.2024 13.7155 50.2024 15.7509C50.2024 17.7863 51.8584 19.4422 53.8938 19.4422C55.9292 19.4422 57.5852 17.7863 57.5852 15.7509C57.5852 15.1817 57.4555 14.6423 57.2244 14.1604L60.0697 11.3151L60.5382 11.7837V28.1979L48.8165 39.9198C48.336 40.4003 48.336 41.1794 48.8165 41.66C49.297 42.1404 50.0761 42.1404 50.5567 41.66L62.6389 29.5779C62.8696 29.347 62.9993 29.0341 62.9993 28.7078V11.2738C62.9993 10.9475 62.8696 10.6346 62.6389 10.4037L61.8098 9.57476ZM22.0963 22.0786C21.4176 22.0786 20.8655 21.5265 20.8655 20.8478C20.8655 20.169 21.4176 19.6168 22.0963 19.6168C22.7751 19.6168 23.3272 20.169 23.3272 20.8478C23.3272 21.5264 22.7751 22.0786 22.0963 22.0786ZM40.937 6.6453C40.6107 6.6453 40.2977 6.77499 40.067 7.0057L25.7575 21.315C25.777 21.1618 25.7882 21.006 25.7882 20.8477C25.7882 18.812 24.1321 17.1558 22.0965 17.1558C20.0609 17.1558 18.4047 18.812 18.4047 20.8477C18.4047 22.8833 20.0608 24.5394 22.0965 24.5394C22.2548 24.5394 22.4106 24.5282 22.5638 24.5088L17.6121 29.4605H4.43135C3.34486 29.4605 2.4609 28.5765 2.4609 27.49V4.43135C2.4609 3.34486 3.34486 2.4609 4.43135 2.4609H49.3526L53.537 6.6453H40.937ZM53.8938 16.9811C53.2153 16.9811 52.6633 16.4291 52.6633 15.7506C52.6633 15.0722 53.2153 14.5202 53.8938 14.5202C54.1746 14.5202 54.433 14.6158 54.6403 14.7748C54.6729 14.8173 54.7076 14.8589 54.7465 14.8978C54.7854 14.9367 54.827 14.9714 54.8695 15.004C55.0285 15.2113 55.1241 15.4697 55.1241 15.7505C55.1242 16.4291 54.5723 16.9811 53.8938 16.9811Z" fill="#007CFF"/>
<path d="M40.9253 36.4011C41.2517 36.4011 41.5647 36.2714 41.7954 36.0407L44.5795 33.2564C45.06 32.7759 45.06 31.9968 44.5795 31.5162C44.099 31.0358 43.3199 31.0358 42.8394 31.5162L40.9253 33.4304L34.8348 27.34C34.3545 26.8596 33.5752 26.8596 33.0947 27.34C32.6143 27.8205 32.6143 28.5996 33.0947 29.0802L40.0553 36.0407C40.2861 36.2714 40.5991 36.4011 40.9253 36.4011Z" fill="#007CFF"/>
<path d="M50.4973 25.5998C50.0169 25.1195 49.2377 25.1195 48.7571 25.5998L47.191 27.1659L45.4509 25.426L47.017 23.8598C47.4975 23.3794 47.4975 22.6002 47.017 22.1196C46.5365 21.6392 45.7574 21.6392 45.2768 22.1196L43.7107 23.6857L41.9706 21.9456L43.5367 20.3795C44.0172 19.899 44.0173 19.1199 43.5367 18.6393C43.0562 18.159 42.2771 18.1589 41.7966 18.6393L39.3604 21.0755C39.1297 21.3062 39 21.6192 39 21.9455C39 22.2718 39.1297 22.5847 39.3604 22.8156L46.3209 29.776C46.5611 30.0162 46.8761 30.1364 47.191 30.1364C47.5059 30.1364 47.8209 30.0162 48.061 29.776L50.4972 27.3398C50.9778 26.8594 50.9778 26.0803 50.4973 25.5998Z" fill="#007CFF"/>
<path d="M36.8868 39.7471C37.492 40.0557 38.2331 39.8148 38.5417 39.2093C38.8502 38.6038 38.6094 37.8629 38.0038 37.5544L28.7812 32.8561C28.3062 32.614 27.7295 32.7055 27.3526 33.0823C26.9757 33.4592 26.8843 34.0361 27.1263 34.5109L31.8247 43.7335C32.042 44.1602 32.4739 44.4058 32.922 44.4057C33.1099 44.4057 33.3007 44.3625 33.4795 44.2713C34.085 43.9629 34.3258 43.222 34.0175 42.6165L33.6402 41.8758L36.1463 39.3697L36.8868 39.7471ZM32.4655 39.5703L31.0377 36.7674L33.8407 38.1954L32.4655 39.5703Z" fill="#007CFF"/>
<path d="M25.0889 49.2655C24.6085 49.746 24.6083 50.5251 25.0889 51.0057C25.3293 51.2459 25.6441 51.3661 25.959 51.3661C26.2739 51.3661 26.5889 51.2459 26.8291 51.0057L28.5693 49.2656C30.0085 47.8263 30.0085 45.4845 28.5693 44.0451C27.2013 42.6771 25.0186 42.6104 23.5697 43.8429C23.5247 43.8769 23.4809 43.9131 23.4399 43.9542L23.3488 44.0451C23.1164 44.2776 22.8074 44.4055 22.4788 44.4055C22.1501 44.4055 21.8412 44.2776 21.6087 44.0451C21.129 43.5654 21.129 42.7848 21.6087 42.3049L23.3488 40.5648C23.8293 40.0843 23.8295 39.3052 23.3488 38.8246C22.8683 38.3443 22.0892 38.3442 21.6087 38.8246L19.8685 40.5647C18.4292 42.004 18.4292 44.3459 19.8685 45.7853C20.5658 46.4824 21.4927 46.8663 22.4787 46.8663C23.4633 46.8663 24.3891 46.4834 25.0862 45.7877C25.0871 45.7869 25.0881 45.7861 25.0889 45.7853C25.5686 45.3054 26.3493 45.3054 26.8291 45.7853C27.0615 46.0177 27.1895 46.3265 27.1895 46.6552C27.1895 46.984 27.0615 47.2929 26.8291 47.5252L25.0889 49.2655Z" fill="#007CFF"/>
<path d="M21.0845 7.94331C20.4927 7.60937 19.7422 7.81805 19.4081 8.4099L11.4717 22.4683C11.1376 23.0601 11.3464 23.8106 11.9383 24.1447C12.1295 24.2526 12.3371 24.3039 12.5421 24.3039C12.9715 24.3039 13.3885 24.0787 13.6146 23.6781L21.5511 9.61968C21.8851 9.02783 21.6763 8.27725 21.0845 7.94331Z" fill="#007CFF"/>
<path d="M15.4032 11.0738C15.4032 9.03816 13.7471 7.38208 11.7114 7.38208C9.67574 7.38208 8.01953 9.03816 8.01953 11.0738C8.01953 13.1095 9.67562 14.7657 11.7113 14.7657C13.747 14.7657 15.4032 13.1095 15.4032 11.0738ZM10.4805 11.0738C10.4805 10.3951 11.0326 9.84301 11.7113 9.84301C12.39 9.84301 12.9421 10.3951 12.9421 11.0738C12.9421 11.7527 12.39 12.3048 11.7113 12.3048C11.0326 12.3048 10.4805 11.7527 10.4805 11.0738Z" fill="#007CFF"/>
<path d="M45.7734 43.4741C45.4486 43.4741 45.1324 43.6058 44.9035 43.8348C44.6746 44.0635 44.543 44.381 44.543 44.7046C44.543 45.0283 44.6746 45.3458 44.9035 45.5745C45.1324 45.8034 45.4486 45.9351 45.7734 45.9351C46.097 45.9351 46.4145 45.8035 46.6434 45.5745C46.8722 45.3458 47.0039 45.0283 47.0039 44.7046C47.0039 44.381 46.8722 44.0635 46.6434 43.8348C46.4145 43.6059 46.097 43.4741 45.7734 43.4741Z" fill="#007CFF"/>
</svg>
