<svg width="21" height="24" viewBox="0 0 21 24" fill="none" xmlns="http://www.w3.org/2000/svg">
<path d="M19.3312 19.5167V15.8346C19.3312 15.0435 18.6899 14.4021 17.8987 14.4021H17.5242V0.959715C17.5242 0.839467 17.4639 0.727256 17.3636 0.660967L16.4543 0.0599603C16.2162 -0.0973923 15.8988 0.0733039 15.8988 0.358708V4.67594L15.6278 3.94501C15.2634 2.96195 14.3257 2.30952 13.2773 2.30952H7.01688C5.96227 2.30952 5.02046 2.96952 4.66054 3.96081L4.40088 4.67594V0.358708C4.40088 0.0733429 4.08341 -0.0973923 3.84529 0.0599603L2.93598 0.660928C2.83566 0.727217 2.77531 0.839428 2.77531 0.959676V14.4021H2.40087C1.60973 14.4021 0.968385 15.0435 0.968385 15.8346V19.5167H0.358092C0.160318 19.5167 0 19.677 0 19.8748V21.8546C0 22.0524 0.160318 22.2127 0.358092 22.2127H1.90306V23.1617C1.90306 23.5573 2.22373 23.8779 2.61932 23.8779H4.51727C4.91285 23.8779 5.23353 23.5572 5.23353 23.1617V22.2127H15.0662V23.1617C15.0662 23.5573 15.3869 23.8779 15.7824 23.8779H17.6804C18.076 23.8779 18.3966 23.5572 18.3966 23.1617V22.2127H19.9416C20.1394 22.2127 20.2997 22.0524 20.2997 21.8546V19.8749C20.2997 19.677 20.1394 19.5167 19.9416 19.5167L19.3312 19.5167ZM4.87536 6.6708H15.4243V10.1994H4.87536V6.6708ZM4.63006 18.5145H3.40663C3.03281 18.5145 2.72977 18.2114 2.72977 17.8376V17.8205C2.72977 17.4467 3.03281 17.1437 3.40663 17.1437H4.63002C5.00384 17.1437 5.30688 17.4467 5.30688 17.8205V17.8376C5.30692 18.2114 5.00388 18.5145 4.63006 18.5145ZM12.5844 18.7141H7.71528C7.31969 18.7141 6.99902 18.3934 6.99902 17.9979V13.4597C6.99902 13.0641 7.31969 12.7435 7.71528 12.7435H12.5844C12.9799 12.7435 13.3006 13.0642 13.3006 13.4597V17.9978C13.3006 18.3934 12.9799 18.7141 12.5844 18.7141ZM16.893 18.5145H15.6696C15.2958 18.5145 14.9927 18.2114 14.9927 17.8376V17.8205C14.9927 17.4467 15.2958 17.1437 15.6696 17.1437H16.893C17.2668 17.1437 17.5699 17.4467 17.5699 17.8205V17.8376C17.5699 18.2114 17.2668 18.5145 16.893 18.5145ZM12.4755 15.3646H7.8127C7.61688 15.3646 7.45816 15.2059 7.45816 15.0101V15.0029C7.45816 14.8071 7.61688 14.6484 7.8127 14.6484H12.4755C12.6713 14.6484 12.83 14.8071 12.83 15.0029V15.0101C12.83 15.2059 12.6713 15.3646 12.4755 15.3646ZM12.4755 13.9321H7.8127C7.61688 13.9321 7.45816 13.7734 7.45816 13.5776V13.5704C7.45816 13.3746 7.61688 13.2159 7.8127 13.2159H12.4755C12.6713 13.2159 12.83 13.3746 12.83 13.5704V13.5776C12.83 13.7734 12.6713 13.9321 12.4755 13.9321ZM12.4755 18.2297H7.8127C7.61688 18.2297 7.45816 18.0709 7.45816 17.8751V17.8679C7.45816 17.6721 7.61688 17.5134 7.8127 17.5134H12.4755C12.6713 17.5134 12.83 17.6721 12.83 17.8679V17.8751C12.83 18.0709 12.6713 18.2297 12.4755 18.2297ZM12.4755 16.7971H7.8127C7.61688 16.7971 7.45816 16.6384 7.45816 16.4426V16.4354C7.45816 16.2396 7.61688 16.0809 7.8127 16.0809H12.4755C12.6713 16.0809 12.83 16.2396 12.83 16.4354V16.4426C12.83 16.6384 12.6713 16.7971 12.4755 16.7971Z" fill="#A5A5A5"/>
</svg>
