<svg width="18" height="14" viewBox="0 0 18 14" fill="none" xmlns="http://www.w3.org/2000/svg">
<path d="M17.2308 1.65738C16.59 1.93846 15.9072 2.12477 15.1954 2.21523C15.9277 1.778 16.4866 1.09092 16.7494 0.262769C16.0666 0.669846 15.3128 0.957385 14.5094 1.11785C13.8611 0.427539 12.9371 0 11.9291 0C9.97338 0 8.39892 1.58738 8.39892 3.53339C8.39892 3.81339 8.42262 4.08262 8.48077 4.33892C5.544 4.19569 2.94538 2.78815 1.19969 0.644C0.894923 1.17277 0.716154 1.778 0.716154 2.42954C0.716154 3.65292 1.34615 4.73738 2.28523 5.36523C1.71769 5.35446 1.16092 5.18969 0.689231 4.93015C0.689231 4.94092 0.689231 4.95492 0.689231 4.96892C0.689231 6.68554 1.91369 8.11139 3.51938 8.43985C3.23185 8.51846 2.91846 8.55615 2.59323 8.55615C2.36708 8.55615 2.13877 8.54323 1.92446 8.49585C2.38215 9.89477 3.68092 10.9232 5.22523 10.9566C4.02339 11.8968 2.49738 12.4632 0.845385 12.4632C0.555692 12.4632 0.277846 12.4503 0 12.4148C1.56477 13.4238 3.41923 14 5.41908 14C11.9194 14 15.4732 8.61539 15.4732 3.948C15.4732 3.79185 15.4678 3.64108 15.4603 3.49138C16.1614 2.99385 16.7505 2.37246 17.2308 1.65738Z" fill="white"/>
</svg>
